# xmcd CD database file
#
# Track frame offsets:
#	150
#	10377
#	26173
#	30835
#	57303
#	68577
#	79953
#	95239
#	112837
#	129720
#	144877
#	163823
#	183967
#	197930
#	219477
#	241816
#
# Disc length: 3413 seconds
#
# Revision: 0
# Processed by: cddbd v1.5PL3 Copyright (c) Steve Scherf et al.
# Submitted via: CDex 1.51
#
DISCID=da0d5310
DTITLE=Louis Armstrong and Ella Fitzgerald - The Hit Collection
DYEAR=1995
DGENRE=Jazz
TTITLE0=What A Wonderful World
TTITLE1=A Fine Romance
TTITLE2=When You´re Smiling
TTITLE3=Cheek To Cheek
TTITLE4=Hello Dolly (LIVE)
TTITLE5=It´s Only A Paper Moon
TTITLE6=Mack The Knife (LIVE)
TTITLE7=Love Is Here To Stay
TTITLE8=Can´t We Be Friends
TTITLE9=I´m Puttin´ All My Eggs In One Basket
TTITLE10=Let´s Call The Whole Thing Off
TTITLE11=A Foggy Day
TTITLE12=I´ve Got My Love To Keep Me Warm
TTITLE13=St. James Infirmary
TTITLE14=Knee Deep In The Blues
TTITLE15=How High The Moon
EXTD=YEAR: 1995
EXTT0=
EXTT1=
EXTT2=
EXTT3=
EXTT4=
EXTT5=
EXTT6=
EXTT7=
EXTT8=
EXTT9=
EXTT10=
EXTT11=
EXTT12=
EXTT13=
EXTT14=
EXTT15=
PLAYORDER=
